<svg width="64" height="16" viewBox="0 0 64 16" fill="none" xmlns="http://www.w3.org/2000/svg">
<path d="M0.00206256 12V0.799999H4.49806C5.66073 0.799999 6.54606 1.072 7.15406 1.616C7.77273 2.14933 8.08206 2.83733 8.08206 3.68C8.08206 4.384 7.89006 4.94933 7.50606 5.376C7.13273 5.792 6.67406 6.07467 6.13006 6.224C6.77006 6.352 7.29806 6.672 7.71406 7.184C8.13006 7.68533 8.33806 8.272 8.33806 8.944C8.33806 9.82933 8.01806 10.56 7.37806 11.136C6.73806 11.712 5.8314 12 4.65806 12H0.00206256ZM2.05006 5.504H4.19406C4.77006 5.504 5.21273 5.37067 5.52206 5.104C5.8314 4.83733 5.98606 4.45867 5.98606 3.968C5.98606 3.49867 5.8314 3.13067 5.52206 2.864C5.2234 2.58667 4.77006 2.448 4.16206 2.448H2.05006V5.504ZM2.05006 10.336H4.33806C4.94606 10.336 5.4154 10.1973 5.74606 9.92C6.0874 9.632 6.25806 9.232 6.25806 8.72C6.25806 8.19733 6.08206 7.78667 5.73006 7.488C5.37806 7.18933 4.9034 7.04 4.30606 7.04H2.05006V10.336ZM17.6958 4.064V12H15.8878L15.7278 10.656C15.4825 11.1253 15.1251 11.4987 14.6558 11.776C14.1971 12.0533 13.6531 12.192 13.0238 12.192C12.0425 12.192 11.2798 11.8827 10.7358 11.264C10.1918 10.6453 9.91981 9.73867 9.91981 8.544V4.064H11.9678V8.352C11.9678 9.03467 12.1065 9.55733 12.3838 9.92C12.6611 10.2827 13.0931 10.464 13.6798 10.464C14.2558 10.464 14.7251 10.2613 15.0878 9.856C15.4611 9.45067 15.6478 8.88533 15.6478 8.16V4.064H17.6958ZM20.7742 15.52L22.6142 11.472H22.1342L19.0462 4.064H21.2702L23.4942 9.648L25.8142 4.064H27.9902L22.9502 15.52H20.7742ZM33.1416 12V4.064H34.9496L35.1096 5.408C35.3549 4.93867 35.7069 4.56533 36.1656 4.288C36.6349 4.01067 37.1842 3.872 37.8136 3.872C38.7949 3.872 39.5576 4.18133 40.1016 4.8C40.6456 5.41867 40.9176 6.32533 40.9176 7.52V12H38.8696V7.712C38.8696 7.02933 38.7309 6.50667 38.4536 6.144C38.1762 5.78133 37.7442 5.6 37.1576 5.6C36.5816 5.6 36.1069 5.80267 35.7336 6.208C35.3709 6.61333 35.1896 7.17867 35.1896 7.904V12H33.1416ZM46.6839 12.192C45.9159 12.192 45.2226 12.016 44.6039 11.664C43.9959 11.312 43.5106 10.8267 43.1479 10.208C42.7959 9.57867 42.6199 8.85333 42.6199 8.032C42.6199 7.21067 42.8013 6.49067 43.1639 5.872C43.5266 5.24267 44.0119 4.752 44.6199 4.4C45.2386 4.048 45.9319 3.872 46.6999 3.872C47.4573 3.872 48.1399 4.048 48.7479 4.4C49.3666 4.752 49.8519 5.24267 50.2039 5.872C50.5666 6.49067 50.7479 7.21067 50.7479 8.032C50.7479 8.85333 50.5666 9.57867 50.2039 10.208C49.8519 10.8267 49.3666 11.312 48.7479 11.664C48.1293 12.016 47.4413 12.192 46.6839 12.192ZM46.6839 10.416C47.2173 10.416 47.6813 10.2187 48.0759 9.824C48.4706 9.41867 48.6679 8.82133 48.6679 8.032C48.6679 7.24267 48.4706 6.65067 48.0759 6.256C47.6813 5.85067 47.2226 5.648 46.6999 5.648C46.1559 5.648 45.6866 5.85067 45.2919 6.256C44.9079 6.65067 44.7159 7.24267 44.7159 8.032C44.7159 8.82133 44.9079 9.41867 45.2919 9.824C45.6866 10.2187 46.1506 10.416 46.6839 10.416ZM53.8498 12L51.5298 4.064H53.5618L54.9378 9.776L56.5378 4.064H58.8098L60.4098 9.776L61.8018 4.064H63.8338L61.4978 12H59.3698L57.6738 6.064L55.9778 12H53.8498Z" fill="#D41443"/>
</svg>
